<mxfile host="app.diagrams.net" agent="Mozilla/5.0 (Windows NT 10.0; Win64; x64) AppleWebKit/537.36 (KHTML, like Gecko) Chrome/138.0.0.0 Safari/537.36" version="28.2.7">
  <diagram name="Pagina-1" id="s-XWecGlXijIhM-GH-9K">
    <mxGraphModel dx="2399" dy="994" grid="1" gridSize="10" guides="1" tooltips="1" connect="1" arrows="1" fold="1" page="1" pageScale="1" pageWidth="827" pageHeight="1169" math="0" shadow="0">
      <root>
        <mxCell id="0" />
        <mxCell id="1" parent="0" />
        <mxCell id="t1PmMs3IWx8FvDzvTRMG-1" value="Festival" style="rounded=1;whiteSpace=wrap;html=1;" parent="1" vertex="1">
          <mxGeometry x="200" y="120" width="120" height="60" as="geometry" />
        </mxCell>
        <mxCell id="t1PmMs3IWx8FvDzvTRMG-2" value="Artist" style="rounded=1;whiteSpace=wrap;html=1;" parent="1" vertex="1">
          <mxGeometry x="510" y="435" width="120" height="60" as="geometry" />
        </mxCell>
        <mxCell id="t1PmMs3IWx8FvDzvTRMG-3" value="Performance" style="rounded=1;whiteSpace=wrap;html=1;" parent="1" vertex="1">
          <mxGeometry x="510" y="280" width="120" height="60" as="geometry" />
        </mxCell>
        <mxCell id="t1PmMs3IWx8FvDzvTRMG-4" value="Stage" style="rounded=1;whiteSpace=wrap;html=1;" parent="1" vertex="1">
          <mxGeometry x="510" y="120" width="120" height="60" as="geometry" />
        </mxCell>
        <mxCell id="t1PmMs3IWx8FvDzvTRMG-10" style="edgeStyle=orthogonalEdgeStyle;rounded=0;orthogonalLoop=1;jettySize=auto;html=1;entryX=1;entryY=0.5;entryDx=0;entryDy=0;endArrow=none;endFill=0;" parent="1" source="t1PmMs3IWx8FvDzvTRMG-9" target="t1PmMs3IWx8FvDzvTRMG-1" edge="1">
          <mxGeometry relative="1" as="geometry" />
        </mxCell>
        <mxCell id="t1PmMs3IWx8FvDzvTRMG-9" value="" style="rhombus;whiteSpace=wrap;html=1;" parent="1" vertex="1">
          <mxGeometry x="400" y="135" width="30" height="30" as="geometry" />
        </mxCell>
        <mxCell id="t1PmMs3IWx8FvDzvTRMG-11" style="edgeStyle=orthogonalEdgeStyle;rounded=0;orthogonalLoop=1;jettySize=auto;html=1;endArrow=none;endFill=0;exitX=0;exitY=0.5;exitDx=0;exitDy=0;" parent="1" source="t1PmMs3IWx8FvDzvTRMG-4" target="t1PmMs3IWx8FvDzvTRMG-9" edge="1">
          <mxGeometry relative="1" as="geometry">
            <mxPoint x="540" y="140" as="sourcePoint" />
            <mxPoint x="460" y="140" as="targetPoint" />
          </mxGeometry>
        </mxCell>
        <mxCell id="t1PmMs3IWx8FvDzvTRMG-12" value="(1,1)" style="text;html=1;align=center;verticalAlign=middle;resizable=0;points=[];autosize=1;strokeColor=none;fillColor=none;" parent="1" vertex="1">
          <mxGeometry x="469" y="124" width="50" height="30" as="geometry" />
        </mxCell>
        <mxCell id="t1PmMs3IWx8FvDzvTRMG-13" value="(1,N)" style="text;html=1;align=center;verticalAlign=middle;resizable=0;points=[];autosize=1;strokeColor=none;fillColor=none;" parent="1" vertex="1">
          <mxGeometry x="313" y="125" width="50" height="30" as="geometry" />
        </mxCell>
        <mxCell id="t1PmMs3IWx8FvDzvTRMG-14" style="edgeStyle=orthogonalEdgeStyle;rounded=0;orthogonalLoop=1;jettySize=auto;html=1;entryX=0.5;entryY=1;entryDx=0;entryDy=0;endArrow=none;endFill=0;" parent="1" source="t1PmMs3IWx8FvDzvTRMG-15" target="t1PmMs3IWx8FvDzvTRMG-4" edge="1">
          <mxGeometry relative="1" as="geometry">
            <mxPoint x="250" y="300" as="targetPoint" />
          </mxGeometry>
        </mxCell>
        <mxCell id="t1PmMs3IWx8FvDzvTRMG-15" value="" style="rhombus;whiteSpace=wrap;html=1;" parent="1" vertex="1">
          <mxGeometry x="555" y="220" width="30" height="30" as="geometry" />
        </mxCell>
        <mxCell id="t1PmMs3IWx8FvDzvTRMG-16" style="edgeStyle=orthogonalEdgeStyle;rounded=0;orthogonalLoop=1;jettySize=auto;html=1;endArrow=none;endFill=0;exitX=0.5;exitY=0;exitDx=0;exitDy=0;" parent="1" source="t1PmMs3IWx8FvDzvTRMG-3" target="t1PmMs3IWx8FvDzvTRMG-15" edge="1">
          <mxGeometry relative="1" as="geometry">
            <mxPoint x="440" y="300" as="sourcePoint" />
            <mxPoint x="390" y="290" as="targetPoint" />
          </mxGeometry>
        </mxCell>
        <mxCell id="t1PmMs3IWx8FvDzvTRMG-17" value="(1,1)" style="text;html=1;align=center;verticalAlign=middle;resizable=0;points=[];autosize=1;strokeColor=none;fillColor=none;" parent="1" vertex="1">
          <mxGeometry x="528" y="253" width="50" height="30" as="geometry" />
        </mxCell>
        <mxCell id="t1PmMs3IWx8FvDzvTRMG-18" value="(1,N)" style="text;html=1;align=center;verticalAlign=middle;resizable=0;points=[];autosize=1;strokeColor=none;fillColor=none;" parent="1" vertex="1">
          <mxGeometry x="527" y="177" width="50" height="30" as="geometry" />
        </mxCell>
        <mxCell id="t1PmMs3IWx8FvDzvTRMG-20" style="edgeStyle=orthogonalEdgeStyle;rounded=0;orthogonalLoop=1;jettySize=auto;html=1;entryX=0.5;entryY=1;entryDx=0;entryDy=0;endArrow=none;endFill=0;" parent="1" source="t1PmMs3IWx8FvDzvTRMG-21" target="t1PmMs3IWx8FvDzvTRMG-3" edge="1">
          <mxGeometry relative="1" as="geometry">
            <mxPoint x="340" y="380" as="targetPoint" />
          </mxGeometry>
        </mxCell>
        <mxCell id="t1PmMs3IWx8FvDzvTRMG-21" value="" style="rhombus;whiteSpace=wrap;html=1;" parent="1" vertex="1">
          <mxGeometry x="555" y="370" width="30" height="30" as="geometry" />
        </mxCell>
        <mxCell id="t1PmMs3IWx8FvDzvTRMG-22" style="edgeStyle=orthogonalEdgeStyle;rounded=0;orthogonalLoop=1;jettySize=auto;html=1;endArrow=none;endFill=0;exitX=0.5;exitY=0;exitDx=0;exitDy=0;" parent="1" source="t1PmMs3IWx8FvDzvTRMG-2" target="t1PmMs3IWx8FvDzvTRMG-21" edge="1">
          <mxGeometry relative="1" as="geometry">
            <mxPoint x="570" y="430" as="sourcePoint" />
            <mxPoint x="160" y="490" as="targetPoint" />
          </mxGeometry>
        </mxCell>
        <mxCell id="t1PmMs3IWx8FvDzvTRMG-23" value="(1,N)" style="text;html=1;align=center;verticalAlign=middle;resizable=0;points=[];autosize=1;strokeColor=none;fillColor=none;" parent="1" vertex="1">
          <mxGeometry x="528" y="338" width="50" height="30" as="geometry" />
        </mxCell>
        <mxCell id="t1PmMs3IWx8FvDzvTRMG-24" value="(1,N)" style="text;html=1;align=center;verticalAlign=middle;resizable=0;points=[];autosize=1;strokeColor=none;fillColor=none;" parent="1" vertex="1">
          <mxGeometry x="527" y="410" width="50" height="30" as="geometry" />
        </mxCell>
        <mxCell id="t1PmMs3IWx8FvDzvTRMG-26" value="Musician" style="rounded=1;whiteSpace=wrap;html=1;" parent="1" vertex="1">
          <mxGeometry x="390" y="570" width="120" height="60" as="geometry" />
        </mxCell>
        <mxCell id="t1PmMs3IWx8FvDzvTRMG-27" value="" style="endArrow=classic;html=1;rounded=0;entryX=0.5;entryY=1;entryDx=0;entryDy=0;exitX=0.5;exitY=0;exitDx=0;exitDy=0;" parent="1" source="t1PmMs3IWx8FvDzvTRMG-26" target="t1PmMs3IWx8FvDzvTRMG-2" edge="1">
          <mxGeometry width="50" height="50" relative="1" as="geometry">
            <mxPoint x="530" y="540" as="sourcePoint" />
            <mxPoint x="580" y="490" as="targetPoint" />
            <Array as="points">
              <mxPoint x="450" y="520" />
              <mxPoint x="570" y="520" />
            </Array>
          </mxGeometry>
        </mxCell>
        <mxCell id="t1PmMs3IWx8FvDzvTRMG-28" value="Band" style="rounded=1;whiteSpace=wrap;html=1;" parent="1" vertex="1">
          <mxGeometry x="640" y="570" width="120" height="60" as="geometry" />
        </mxCell>
        <mxCell id="t1PmMs3IWx8FvDzvTRMG-29" value="" style="endArrow=classic;html=1;rounded=0;entryX=0.5;entryY=1;entryDx=0;entryDy=0;exitX=0.5;exitY=0;exitDx=0;exitDy=0;" parent="1" source="t1PmMs3IWx8FvDzvTRMG-28" target="t1PmMs3IWx8FvDzvTRMG-2" edge="1">
          <mxGeometry width="50" height="50" relative="1" as="geometry">
            <mxPoint x="800" y="540" as="sourcePoint" />
            <mxPoint x="600" y="330" as="targetPoint" />
            <Array as="points">
              <mxPoint x="700" y="520" />
              <mxPoint x="570" y="520" />
            </Array>
          </mxGeometry>
        </mxCell>
        <mxCell id="t1PmMs3IWx8FvDzvTRMG-30" style="edgeStyle=orthogonalEdgeStyle;rounded=0;orthogonalLoop=1;jettySize=auto;html=1;entryX=1;entryY=0.5;entryDx=0;entryDy=0;endArrow=none;endFill=0;" parent="1" source="t1PmMs3IWx8FvDzvTRMG-31" target="t1PmMs3IWx8FvDzvTRMG-26" edge="1">
          <mxGeometry relative="1" as="geometry">
            <mxPoint x="570" y="550" as="targetPoint" />
          </mxGeometry>
        </mxCell>
        <mxCell id="t1PmMs3IWx8FvDzvTRMG-31" value="" style="rhombus;whiteSpace=wrap;html=1;" parent="1" vertex="1">
          <mxGeometry x="555" y="585" width="30" height="30" as="geometry" />
        </mxCell>
        <mxCell id="t1PmMs3IWx8FvDzvTRMG-32" style="edgeStyle=orthogonalEdgeStyle;rounded=0;orthogonalLoop=1;jettySize=auto;html=1;endArrow=none;endFill=0;exitX=0;exitY=0.5;exitDx=0;exitDy=0;" parent="1" source="t1PmMs3IWx8FvDzvTRMG-28" target="t1PmMs3IWx8FvDzvTRMG-31" edge="1">
          <mxGeometry relative="1" as="geometry">
            <mxPoint x="790" y="680" as="sourcePoint" />
            <mxPoint x="390" y="660" as="targetPoint" />
          </mxGeometry>
        </mxCell>
        <mxCell id="t1PmMs3IWx8FvDzvTRMG-33" value="(0,N)" style="text;html=1;align=center;verticalAlign=middle;resizable=0;points=[];autosize=1;strokeColor=none;fillColor=none;" parent="1" vertex="1">
          <mxGeometry x="503" y="575" width="50" height="30" as="geometry" />
        </mxCell>
        <mxCell id="t1PmMs3IWx8FvDzvTRMG-34" value="(2,N)" style="text;html=1;align=center;verticalAlign=middle;resizable=0;points=[];autosize=1;strokeColor=none;fillColor=none;" parent="1" vertex="1">
          <mxGeometry x="597" y="577" width="50" height="30" as="geometry" />
        </mxCell>
        <mxCell id="t1PmMs3IWx8FvDzvTRMG-35" value="Una musicista può lavorare in più band" style="text;html=1;align=center;verticalAlign=middle;whiteSpace=wrap;rounded=0;" parent="1" vertex="1">
          <mxGeometry x="510" y="630" width="120" height="50" as="geometry" />
        </mxCell>
        <mxCell id="t1PmMs3IWx8FvDzvTRMG-36" value="Genre" style="rounded=1;whiteSpace=wrap;html=1;" parent="1" vertex="1">
          <mxGeometry x="761" y="280" width="120" height="60" as="geometry" />
        </mxCell>
        <mxCell id="t1PmMs3IWx8FvDzvTRMG-37" style="edgeStyle=orthogonalEdgeStyle;rounded=0;orthogonalLoop=1;jettySize=auto;html=1;entryX=0.5;entryY=1;entryDx=0;entryDy=0;endArrow=none;endFill=0;" parent="1" source="t1PmMs3IWx8FvDzvTRMG-38" target="t1PmMs3IWx8FvDzvTRMG-36" edge="1">
          <mxGeometry relative="1" as="geometry">
            <mxPoint x="795" y="375" as="targetPoint" />
          </mxGeometry>
        </mxCell>
        <mxCell id="t1PmMs3IWx8FvDzvTRMG-38" value="" style="rhombus;whiteSpace=wrap;html=1;" parent="1" vertex="1">
          <mxGeometry x="806" y="450" width="30" height="30" as="geometry" />
        </mxCell>
        <mxCell id="t1PmMs3IWx8FvDzvTRMG-39" style="edgeStyle=orthogonalEdgeStyle;rounded=0;orthogonalLoop=1;jettySize=auto;html=1;endArrow=none;endFill=0;exitX=1;exitY=0.5;exitDx=0;exitDy=0;" parent="1" source="t1PmMs3IWx8FvDzvTRMG-2" target="t1PmMs3IWx8FvDzvTRMG-38" edge="1">
          <mxGeometry relative="1" as="geometry">
            <mxPoint x="795" y="470" as="sourcePoint" />
            <mxPoint x="385" y="525" as="targetPoint" />
          </mxGeometry>
        </mxCell>
        <mxCell id="t1PmMs3IWx8FvDzvTRMG-40" value="(1,1)" style="text;html=1;align=center;verticalAlign=middle;resizable=0;points=[];autosize=1;strokeColor=none;fillColor=none;" parent="1" vertex="1">
          <mxGeometry x="622" y="439" width="50" height="30" as="geometry" />
        </mxCell>
        <mxCell id="t1PmMs3IWx8FvDzvTRMG-41" value="(0,N)" style="text;html=1;align=center;verticalAlign=middle;resizable=0;points=[];autosize=1;strokeColor=none;fillColor=none;" parent="1" vertex="1">
          <mxGeometry x="777" y="340" width="50" height="30" as="geometry" />
        </mxCell>
        <mxCell id="t1PmMs3IWx8FvDzvTRMG-42" style="edgeStyle=orthogonalEdgeStyle;rounded=0;orthogonalLoop=1;jettySize=auto;html=1;entryX=1;entryY=0.5;entryDx=0;entryDy=0;endArrow=none;endFill=0;" parent="1" source="t1PmMs3IWx8FvDzvTRMG-43" target="t1PmMs3IWx8FvDzvTRMG-3" edge="1">
          <mxGeometry relative="1" as="geometry">
            <mxPoint x="630" y="300" as="targetPoint" />
          </mxGeometry>
        </mxCell>
        <mxCell id="t1PmMs3IWx8FvDzvTRMG-43" value="" style="rhombus;whiteSpace=wrap;html=1;" parent="1" vertex="1">
          <mxGeometry x="685" y="295" width="30" height="30" as="geometry" />
        </mxCell>
        <mxCell id="t1PmMs3IWx8FvDzvTRMG-44" style="edgeStyle=orthogonalEdgeStyle;rounded=0;orthogonalLoop=1;jettySize=auto;html=1;endArrow=none;endFill=0;exitX=0;exitY=0.5;exitDx=0;exitDy=0;" parent="1" source="t1PmMs3IWx8FvDzvTRMG-36" target="t1PmMs3IWx8FvDzvTRMG-43" edge="1">
          <mxGeometry relative="1" as="geometry">
            <mxPoint x="760" y="295" as="sourcePoint" />
            <mxPoint x="270" y="400" as="targetPoint" />
          </mxGeometry>
        </mxCell>
        <mxCell id="t1PmMs3IWx8FvDzvTRMG-45" value="(0,N)" style="text;html=1;align=center;verticalAlign=middle;resizable=0;points=[];autosize=1;strokeColor=none;fillColor=none;" parent="1" vertex="1">
          <mxGeometry x="717" y="284" width="50" height="30" as="geometry" />
        </mxCell>
        <mxCell id="t1PmMs3IWx8FvDzvTRMG-46" value="(1,1)" style="text;html=1;align=center;verticalAlign=middle;resizable=0;points=[];autosize=1;strokeColor=none;fillColor=none;" parent="1" vertex="1">
          <mxGeometry x="620" y="310" width="50" height="30" as="geometry" />
        </mxCell>
        <mxCell id="t1PmMs3IWx8FvDzvTRMG-51" value="Il testo richiede solo il genere principale dell&#39;artista. Questo potrebbe indicare che l&#39;artista può eseguire performance in generi diversi." style="text;html=1;align=center;verticalAlign=middle;whiteSpace=wrap;rounded=0;" parent="1" vertex="1">
          <mxGeometry x="910" y="264" width="190" height="90" as="geometry" />
        </mxCell>
        <mxCell id="t1PmMs3IWx8FvDzvTRMG-52" value="Stand" style="rounded=1;whiteSpace=wrap;html=1;" parent="1" vertex="1">
          <mxGeometry x="200" y="325" width="120" height="60" as="geometry" />
        </mxCell>
        <mxCell id="t1PmMs3IWx8FvDzvTRMG-54" style="edgeStyle=orthogonalEdgeStyle;rounded=0;orthogonalLoop=1;jettySize=auto;html=1;entryX=0.5;entryY=1;entryDx=0;entryDy=0;endArrow=none;endFill=0;" parent="1" source="t1PmMs3IWx8FvDzvTRMG-55" target="t1PmMs3IWx8FvDzvTRMG-1" edge="1">
          <mxGeometry relative="1" as="geometry">
            <mxPoint x="277.5" y="200" as="targetPoint" />
          </mxGeometry>
        </mxCell>
        <mxCell id="t1PmMs3IWx8FvDzvTRMG-55" value="" style="rhombus;whiteSpace=wrap;html=1;" parent="1" vertex="1">
          <mxGeometry x="245" y="240" width="30" height="30" as="geometry" />
        </mxCell>
        <mxCell id="t1PmMs3IWx8FvDzvTRMG-56" style="edgeStyle=orthogonalEdgeStyle;rounded=0;orthogonalLoop=1;jettySize=auto;html=1;endArrow=none;endFill=0;exitX=0.5;exitY=0;exitDx=0;exitDy=0;" parent="1" source="t1PmMs3IWx8FvDzvTRMG-52" target="t1PmMs3IWx8FvDzvTRMG-55" edge="1">
          <mxGeometry relative="1" as="geometry">
            <mxPoint x="277.5" y="300" as="sourcePoint" />
            <mxPoint x="97.5" y="310" as="targetPoint" />
          </mxGeometry>
        </mxCell>
        <mxCell id="t1PmMs3IWx8FvDzvTRMG-57" value="(1,1)" style="text;html=1;align=center;verticalAlign=middle;resizable=0;points=[];autosize=1;strokeColor=none;fillColor=none;" parent="1" vertex="1">
          <mxGeometry x="217" y="300" width="50" height="30" as="geometry" />
        </mxCell>
        <mxCell id="t1PmMs3IWx8FvDzvTRMG-58" value="(0,N)" style="text;html=1;align=center;verticalAlign=middle;resizable=0;points=[];autosize=1;strokeColor=none;fillColor=none;" parent="1" vertex="1">
          <mxGeometry x="217" y="176" width="50" height="30" as="geometry" />
        </mxCell>
        <mxCell id="t1PmMs3IWx8FvDzvTRMG-59" value="Un festival può non avere stands" style="text;html=1;align=center;verticalAlign=middle;whiteSpace=wrap;rounded=0;" parent="1" vertex="1">
          <mxGeometry x="100" y="310" width="90" height="70" as="geometry" />
        </mxCell>
        <mxCell id="t1PmMs3IWx8FvDzvTRMG-60" value="Uno stand può lavorare in più festival" style="text;html=1;align=center;verticalAlign=middle;whiteSpace=wrap;rounded=0;" parent="1" vertex="1">
          <mxGeometry x="90" y="190" width="90" height="70" as="geometry" />
        </mxCell>
        <mxCell id="t1PmMs3IWx8FvDzvTRMG-61" value="Product" style="rounded=1;whiteSpace=wrap;html=1;" parent="1" vertex="1">
          <mxGeometry x="200" y="560" width="120" height="60" as="geometry" />
        </mxCell>
        <mxCell id="t1PmMs3IWx8FvDzvTRMG-62" style="edgeStyle=orthogonalEdgeStyle;rounded=0;orthogonalLoop=1;jettySize=auto;html=1;entryX=0.5;entryY=1;entryDx=0;entryDy=0;endArrow=none;endFill=0;" parent="1" source="t1PmMs3IWx8FvDzvTRMG-63" target="t1PmMs3IWx8FvDzvTRMG-52" edge="1">
          <mxGeometry relative="1" as="geometry">
            <mxPoint x="310" y="490" as="targetPoint" />
          </mxGeometry>
        </mxCell>
        <mxCell id="t1PmMs3IWx8FvDzvTRMG-63" value="" style="rhombus;whiteSpace=wrap;html=1;" parent="1" vertex="1">
          <mxGeometry x="245" y="480" width="30" height="30" as="geometry" />
        </mxCell>
        <mxCell id="t1PmMs3IWx8FvDzvTRMG-64" style="edgeStyle=orthogonalEdgeStyle;rounded=0;orthogonalLoop=1;jettySize=auto;html=1;endArrow=none;endFill=0;exitX=0.5;exitY=0;exitDx=0;exitDy=0;" parent="1" source="t1PmMs3IWx8FvDzvTRMG-61" target="t1PmMs3IWx8FvDzvTRMG-63" edge="1">
          <mxGeometry relative="1" as="geometry">
            <mxPoint x="435" y="705" as="sourcePoint" />
            <mxPoint x="272.5" y="690" as="targetPoint" />
          </mxGeometry>
        </mxCell>
        <mxCell id="t1PmMs3IWx8FvDzvTRMG-65" value="(1,N)" style="text;html=1;align=center;verticalAlign=middle;resizable=0;points=[];autosize=1;strokeColor=none;fillColor=none;" parent="1" vertex="1">
          <mxGeometry x="250" y="380" width="50" height="30" as="geometry" />
        </mxCell>
        <mxCell id="t1PmMs3IWx8FvDzvTRMG-66" value="(1,N)" style="text;html=1;align=center;verticalAlign=middle;resizable=0;points=[];autosize=1;strokeColor=none;fillColor=none;" parent="1" vertex="1">
          <mxGeometry x="255" y="530" width="50" height="30" as="geometry" />
        </mxCell>
        <mxCell id="t1PmMs3IWx8FvDzvTRMG-68" value="Un prodotto viene inserito solo se&amp;nbsp;venduto in stand" style="text;html=1;align=center;verticalAlign=middle;rounded=0;whiteSpace=wrap;" parent="1" vertex="1">
          <mxGeometry x="115" y="450" width="100" height="90" as="geometry" />
        </mxCell>
        <mxCell id="t1PmMs3IWx8FvDzvTRMG-69" value="Drink" style="rounded=1;whiteSpace=wrap;html=1;" parent="1" vertex="1">
          <mxGeometry x="200" y="685" width="120" height="60" as="geometry" />
        </mxCell>
        <mxCell id="t1PmMs3IWx8FvDzvTRMG-70" value="Food" style="rounded=1;whiteSpace=wrap;html=1;" parent="1" vertex="1">
          <mxGeometry x="200" y="820" width="120" height="60" as="geometry" />
        </mxCell>
        <mxCell id="t1PmMs3IWx8FvDzvTRMG-71" style="edgeStyle=orthogonalEdgeStyle;rounded=0;orthogonalLoop=1;jettySize=auto;html=1;exitX=0.5;exitY=1;exitDx=0;exitDy=0;" parent="1" source="t1PmMs3IWx8FvDzvTRMG-70" target="t1PmMs3IWx8FvDzvTRMG-70" edge="1">
          <mxGeometry relative="1" as="geometry" />
        </mxCell>
        <mxCell id="t1PmMs3IWx8FvDzvTRMG-72" value="" style="endArrow=classic;html=1;rounded=0;entryX=0.5;entryY=1;entryDx=0;entryDy=0;exitX=0.5;exitY=0;exitDx=0;exitDy=0;" parent="1" source="t1PmMs3IWx8FvDzvTRMG-70" target="t1PmMs3IWx8FvDzvTRMG-69" edge="1">
          <mxGeometry width="50" height="50" relative="1" as="geometry">
            <mxPoint x="285" y="870" as="sourcePoint" />
            <mxPoint x="335" y="820" as="targetPoint" />
          </mxGeometry>
        </mxCell>
        <mxCell id="t1PmMs3IWx8FvDzvTRMG-73" value="" style="endArrow=classic;html=1;rounded=0;entryX=0.5;entryY=1;entryDx=0;entryDy=0;exitX=0.5;exitY=0;exitDx=0;exitDy=0;" parent="1" source="t1PmMs3IWx8FvDzvTRMG-69" target="t1PmMs3IWx8FvDzvTRMG-61" edge="1">
          <mxGeometry width="50" height="50" relative="1" as="geometry">
            <mxPoint x="285" y="870" as="sourcePoint" />
            <mxPoint x="335" y="820" as="targetPoint" />
          </mxGeometry>
        </mxCell>
        <mxCell id="t1PmMs3IWx8FvDzvTRMG-74" value="Il prodotto rappresenta il merchandise" style="text;html=1;align=center;verticalAlign=middle;whiteSpace=wrap;rounded=0;" parent="1" vertex="1">
          <mxGeometry x="98" y="605" width="80" height="50" as="geometry" />
        </mxCell>
        <mxCell id="t1PmMs3IWx8FvDzvTRMG-75" value="Il drink è una specializzazione del prodotto." style="text;html=1;align=center;verticalAlign=middle;whiteSpace=wrap;rounded=0;" parent="1" vertex="1">
          <mxGeometry x="89" y="695" width="80" height="50" as="geometry" />
        </mxCell>
        <mxCell id="t1PmMs3IWx8FvDzvTRMG-76" value="Il food è una specializzazione del prodotto." style="text;html=1;align=center;verticalAlign=middle;whiteSpace=wrap;rounded=0;" parent="1" vertex="1">
          <mxGeometry x="94" y="820" width="80" height="50" as="geometry" />
        </mxCell>
        <mxCell id="t1PmMs3IWx8FvDzvTRMG-77" value="Ticket" style="rounded=1;whiteSpace=wrap;html=1;" parent="1" vertex="1">
          <mxGeometry x="-38" y="120" width="120" height="60" as="geometry" />
        </mxCell>
        <mxCell id="t1PmMs3IWx8FvDzvTRMG-78" style="edgeStyle=orthogonalEdgeStyle;rounded=0;orthogonalLoop=1;jettySize=auto;html=1;endArrow=none;endFill=0;entryX=1;entryY=0.5;entryDx=0;entryDy=0;" parent="1" source="t1PmMs3IWx8FvDzvTRMG-79" target="t1PmMs3IWx8FvDzvTRMG-77" edge="1">
          <mxGeometry relative="1" as="geometry">
            <mxPoint x="100" y="140" as="targetPoint" />
          </mxGeometry>
        </mxCell>
        <mxCell id="t1PmMs3IWx8FvDzvTRMG-79" value="" style="rhombus;whiteSpace=wrap;html=1;" parent="1" vertex="1">
          <mxGeometry x="122.5" y="135" width="30" height="30" as="geometry" />
        </mxCell>
        <mxCell id="t1PmMs3IWx8FvDzvTRMG-80" style="edgeStyle=orthogonalEdgeStyle;rounded=0;orthogonalLoop=1;jettySize=auto;html=1;endArrow=none;endFill=0;entryX=1;entryY=0.5;entryDx=0;entryDy=0;exitX=0;exitY=0.5;exitDx=0;exitDy=0;" parent="1" source="t1PmMs3IWx8FvDzvTRMG-1" target="t1PmMs3IWx8FvDzvTRMG-79" edge="1">
          <mxGeometry relative="1" as="geometry">
            <mxPoint x="190" y="150" as="sourcePoint" />
            <mxPoint x="122.5" y="160" as="targetPoint" />
          </mxGeometry>
        </mxCell>
        <mxCell id="t1PmMs3IWx8FvDzvTRMG-81" value="(1,1)" style="text;html=1;align=center;verticalAlign=middle;resizable=0;points=[];autosize=1;strokeColor=none;fillColor=none;" parent="1" vertex="1">
          <mxGeometry x="72.5" y="124" width="50" height="30" as="geometry" />
        </mxCell>
        <mxCell id="t1PmMs3IWx8FvDzvTRMG-82" value="(1,N)" style="text;html=1;align=center;verticalAlign=middle;resizable=0;points=[];autosize=1;strokeColor=none;fillColor=none;" parent="1" vertex="1">
          <mxGeometry x="158" y="124" width="50" height="30" as="geometry" />
        </mxCell>
        <mxCell id="t1PmMs3IWx8FvDzvTRMG-83" value="Person" style="rounded=1;whiteSpace=wrap;html=1;" parent="1" vertex="1">
          <mxGeometry x="-280" y="120" width="120" height="60" as="geometry" />
        </mxCell>
        <mxCell id="t1PmMs3IWx8FvDzvTRMG-84" style="edgeStyle=orthogonalEdgeStyle;rounded=0;orthogonalLoop=1;jettySize=auto;html=1;endArrow=none;endFill=0;entryX=1;entryY=0.5;entryDx=0;entryDy=0;" parent="1" source="t1PmMs3IWx8FvDzvTRMG-85" target="t1PmMs3IWx8FvDzvTRMG-83" edge="1">
          <mxGeometry relative="1" as="geometry">
            <mxPoint x="-140" y="160" as="targetPoint" />
          </mxGeometry>
        </mxCell>
        <mxCell id="t1PmMs3IWx8FvDzvTRMG-85" value="" style="rhombus;whiteSpace=wrap;html=1;" parent="1" vertex="1">
          <mxGeometry x="-117" y="135" width="30" height="30" as="geometry" />
        </mxCell>
        <mxCell id="t1PmMs3IWx8FvDzvTRMG-86" style="edgeStyle=orthogonalEdgeStyle;rounded=0;orthogonalLoop=1;jettySize=auto;html=1;endArrow=none;endFill=0;entryX=1;entryY=0.5;entryDx=0;entryDy=0;exitX=0;exitY=0.5;exitDx=0;exitDy=0;" parent="1" source="t1PmMs3IWx8FvDzvTRMG-77" target="t1PmMs3IWx8FvDzvTRMG-85" edge="1">
          <mxGeometry relative="1" as="geometry">
            <mxPoint x="-42.5" y="150" as="sourcePoint" />
            <mxPoint x="-120" y="160" as="targetPoint" />
          </mxGeometry>
        </mxCell>
        <mxCell id="t1PmMs3IWx8FvDzvTRMG-87" value="(0,N)" style="text;html=1;align=center;verticalAlign=middle;resizable=0;points=[];autosize=1;strokeColor=none;fillColor=none;" parent="1" vertex="1">
          <mxGeometry x="-81" y="124" width="50" height="30" as="geometry" />
        </mxCell>
        <mxCell id="t1PmMs3IWx8FvDzvTRMG-88" value="(0,N)" style="text;html=1;align=center;verticalAlign=middle;resizable=0;points=[];autosize=1;strokeColor=none;fillColor=none;" parent="1" vertex="1">
          <mxGeometry x="-168" y="124" width="50" height="30" as="geometry" />
        </mxCell>
        <mxCell id="t1PmMs3IWx8FvDzvTRMG-90" style="edgeStyle=orthogonalEdgeStyle;rounded=0;orthogonalLoop=1;jettySize=auto;html=1;entryX=0.5;entryY=1;entryDx=0;entryDy=0;endArrow=none;endFill=0;" parent="1" source="t1PmMs3IWx8FvDzvTRMG-91" target="t1PmMs3IWx8FvDzvTRMG-83" edge="1">
          <mxGeometry relative="1" as="geometry">
            <mxPoint x="-125" y="275" as="targetPoint" />
          </mxGeometry>
        </mxCell>
        <mxCell id="t1PmMs3IWx8FvDzvTRMG-91" value="" style="rhombus;whiteSpace=wrap;html=1;" parent="1" vertex="1">
          <mxGeometry x="-235" y="575" width="30" height="30" as="geometry" />
        </mxCell>
        <mxCell id="t1PmMs3IWx8FvDzvTRMG-92" style="edgeStyle=orthogonalEdgeStyle;rounded=0;orthogonalLoop=1;jettySize=auto;html=1;endArrow=none;endFill=0;exitX=0;exitY=0.5;exitDx=0;exitDy=0;entryX=1;entryY=0.5;entryDx=0;entryDy=0;" parent="1" target="t1PmMs3IWx8FvDzvTRMG-91" edge="1">
          <mxGeometry relative="1" as="geometry">
            <mxPoint x="200" y="590" as="sourcePoint" />
            <mxPoint x="-180" y="600" as="targetPoint" />
          </mxGeometry>
        </mxCell>
        <mxCell id="t1PmMs3IWx8FvDzvTRMG-93" value="(0,N)" style="text;html=1;align=center;verticalAlign=middle;resizable=0;points=[];autosize=1;strokeColor=none;fillColor=none;" parent="1" vertex="1">
          <mxGeometry x="-228" y="178" width="50" height="30" as="geometry" />
        </mxCell>
        <mxCell id="t1PmMs3IWx8FvDzvTRMG-94" value="(0,N)" style="text;html=1;align=center;verticalAlign=middle;resizable=0;points=[];autosize=1;strokeColor=none;fillColor=none;" parent="1" vertex="1">
          <mxGeometry x="156.5" y="564" width="50" height="30" as="geometry" />
        </mxCell>
        <mxCell id="glZ-dOasdqyVMI1zNMbs-1" value="(T, E)" style="text;html=1;align=center;verticalAlign=middle;resizable=0;points=[];autosize=1;strokeColor=none;fillColor=none;" parent="1" vertex="1">
          <mxGeometry x="568" y="492" width="50" height="30" as="geometry" />
        </mxCell>
        <mxCell id="glZ-dOasdqyVMI1zNMbs-2" value="(P, E)" style="text;html=1;align=center;verticalAlign=middle;resizable=0;points=[];autosize=1;strokeColor=none;fillColor=none;" parent="1" vertex="1">
          <mxGeometry x="254" y="637" width="50" height="30" as="geometry" />
        </mxCell>
        <mxCell id="glZ-dOasdqyVMI1zNMbs-3" value="(P, E)" style="text;html=1;align=center;verticalAlign=middle;resizable=0;points=[];autosize=1;strokeColor=none;fillColor=none;" parent="1" vertex="1">
          <mxGeometry x="255" y="772" width="50" height="30" as="geometry" />
        </mxCell>
        <mxCell id="glZ-dOasdqyVMI1zNMbs-19" value="" style="ellipse;whiteSpace=wrap;html=1;aspect=fixed;" parent="1" vertex="1">
          <mxGeometry x="335" y="333" width="13" height="13" as="geometry" />
        </mxCell>
        <mxCell id="glZ-dOasdqyVMI1zNMbs-20" value="" style="endArrow=none;html=1;rounded=0;entryX=1;entryY=0.25;entryDx=0;entryDy=0;exitX=0;exitY=0.5;exitDx=0;exitDy=0;" parent="1" source="glZ-dOasdqyVMI1zNMbs-19" edge="1" target="t1PmMs3IWx8FvDzvTRMG-52">
          <mxGeometry width="50" height="50" relative="1" as="geometry">
            <mxPoint x="326" y="336.5" as="sourcePoint" />
            <mxPoint x="386" y="336.5" as="targetPoint" />
          </mxGeometry>
        </mxCell>
        <mxCell id="glZ-dOasdqyVMI1zNMbs-21" value="" style="ellipse;whiteSpace=wrap;html=1;aspect=fixed;" parent="1" vertex="1">
          <mxGeometry x="-209.5" y="551" width="13" height="13" as="geometry" />
        </mxCell>
        <mxCell id="glZ-dOasdqyVMI1zNMbs-22" value="" style="endArrow=none;html=1;rounded=0;entryX=0.59;entryY=0.085;entryDx=0;entryDy=0;exitX=0;exitY=1;exitDx=0;exitDy=0;entryPerimeter=0;" parent="1" source="glZ-dOasdqyVMI1zNMbs-21" edge="1" target="t1PmMs3IWx8FvDzvTRMG-91">
          <mxGeometry width="50" height="50" relative="1" as="geometry">
            <mxPoint x="-220" y="546.5" as="sourcePoint" />
            <mxPoint x="-160" y="546.5" as="targetPoint" />
          </mxGeometry>
        </mxCell>
        <mxCell id="glZ-dOasdqyVMI1zNMbs-31" value="" style="ellipse;whiteSpace=wrap;html=1;aspect=fixed;" parent="1" vertex="1">
          <mxGeometry x="323" y="90" width="13" height="13" as="geometry" />
        </mxCell>
        <mxCell id="glZ-dOasdqyVMI1zNMbs-32" value="" style="endArrow=none;html=1;rounded=0;entryX=0.955;entryY=0.013;entryDx=0;entryDy=0;entryPerimeter=0;exitX=0.5;exitY=1;exitDx=0;exitDy=0;" parent="1" source="glZ-dOasdqyVMI1zNMbs-31" edge="1" target="t1PmMs3IWx8FvDzvTRMG-1">
          <mxGeometry width="50" height="50" relative="1" as="geometry">
            <mxPoint x="350" y="100" as="sourcePoint" />
            <mxPoint x="320" y="120" as="targetPoint" />
          </mxGeometry>
        </mxCell>
        <mxCell id="glZ-dOasdqyVMI1zNMbs-33" value="" style="ellipse;whiteSpace=wrap;html=1;aspect=fixed;" parent="1" vertex="1">
          <mxGeometry x="284" y="90" width="13" height="13" as="geometry" />
        </mxCell>
        <mxCell id="glZ-dOasdqyVMI1zNMbs-34" value="" style="endArrow=none;html=1;rounded=0;entryX=0.75;entryY=0;entryDx=0;entryDy=0;exitX=0.5;exitY=1;exitDx=0;exitDy=0;" parent="1" source="glZ-dOasdqyVMI1zNMbs-33" edge="1" target="t1PmMs3IWx8FvDzvTRMG-1">
          <mxGeometry width="50" height="50" relative="1" as="geometry">
            <mxPoint x="-343" y="226.5" as="sourcePoint" />
            <mxPoint x="-283" y="226.5" as="targetPoint" />
          </mxGeometry>
        </mxCell>
        <mxCell id="glZ-dOasdqyVMI1zNMbs-62" value="" style="edgeStyle=orthogonalEdgeStyle;rounded=0;orthogonalLoop=1;jettySize=auto;html=1;entryX=0.5;entryY=0;entryDx=0;entryDy=0;endArrow=none;endFill=0;" parent="1" source="glZ-dOasdqyVMI1zNMbs-35" target="t1PmMs3IWx8FvDzvTRMG-1" edge="1">
          <mxGeometry relative="1" as="geometry">
            <Array as="points">
              <mxPoint x="249" y="120" />
            </Array>
          </mxGeometry>
        </mxCell>
        <mxCell id="glZ-dOasdqyVMI1zNMbs-35" value="" style="ellipse;whiteSpace=wrap;html=1;aspect=fixed;" parent="1" vertex="1">
          <mxGeometry x="242" y="90" width="13" height="13" as="geometry" />
        </mxCell>
        <mxCell id="glZ-dOasdqyVMI1zNMbs-43" value="" style="ellipse;whiteSpace=wrap;html=1;aspect=fixed;" parent="1" vertex="1">
          <mxGeometry x="15" y="95" width="13" height="13" as="geometry" />
        </mxCell>
        <mxCell id="glZ-dOasdqyVMI1zNMbs-44" value="" style="endArrow=none;html=1;rounded=0;entryX=0.473;entryY=0.007;entryDx=0;entryDy=0;exitX=0.5;exitY=1;exitDx=0;exitDy=0;entryPerimeter=0;" parent="1" source="glZ-dOasdqyVMI1zNMbs-43" edge="1">
          <mxGeometry width="50" height="50" relative="1" as="geometry">
            <mxPoint x="-10" y="94.5" as="sourcePoint" />
            <mxPoint x="21.75999999999999" y="120.41999999999996" as="targetPoint" />
          </mxGeometry>
        </mxCell>
        <mxCell id="glZ-dOasdqyVMI1zNMbs-45" value="" style="ellipse;whiteSpace=wrap;html=1;aspect=fixed;" parent="1" vertex="1">
          <mxGeometry x="610" y="65" width="13" height="13" as="geometry" />
        </mxCell>
        <mxCell id="glZ-dOasdqyVMI1zNMbs-46" value="" style="endArrow=none;html=1;rounded=0;exitX=0.5;exitY=1;exitDx=0;exitDy=0;entryX=0.75;entryY=0;entryDx=0;entryDy=0;" parent="1" source="glZ-dOasdqyVMI1zNMbs-45" edge="1" target="t1PmMs3IWx8FvDzvTRMG-4">
          <mxGeometry width="50" height="50" relative="1" as="geometry">
            <mxPoint x="-323" y="346.5" as="sourcePoint" />
            <mxPoint x="598.4" y="110" as="targetPoint" />
          </mxGeometry>
        </mxCell>
        <mxCell id="glZ-dOasdqyVMI1zNMbs-47" value="" style="ellipse;whiteSpace=wrap;html=1;aspect=fixed;" parent="1" vertex="1">
          <mxGeometry x="562" y="77.5" width="13" height="13" as="geometry" />
        </mxCell>
        <mxCell id="glZ-dOasdqyVMI1zNMbs-48" value="" style="endArrow=none;html=1;rounded=0;entryX=0.489;entryY=0.003;entryDx=0;entryDy=0;exitX=0.5;exitY=1;exitDx=0;exitDy=0;entryPerimeter=0;" parent="1" source="glZ-dOasdqyVMI1zNMbs-47" edge="1" target="t1PmMs3IWx8FvDzvTRMG-4">
          <mxGeometry width="50" height="50" relative="1" as="geometry">
            <mxPoint x="-323" y="366.5" as="sourcePoint" />
            <mxPoint x="-263" y="366.5" as="targetPoint" />
          </mxGeometry>
        </mxCell>
        <mxCell id="glZ-dOasdqyVMI1zNMbs-49" value="" style="ellipse;whiteSpace=wrap;html=1;aspect=fixed;" parent="1" vertex="1">
          <mxGeometry x="528" y="77" width="13" height="13" as="geometry" />
        </mxCell>
        <mxCell id="glZ-dOasdqyVMI1zNMbs-57" value="" style="ellipse;whiteSpace=wrap;html=1;aspect=fixed;" parent="1" vertex="1">
          <mxGeometry x="220" y="90" width="13" height="13" as="geometry" />
        </mxCell>
        <mxCell id="glZ-dOasdqyVMI1zNMbs-58" value="" style="endArrow=none;html=1;rounded=0;entryX=0.25;entryY=0;entryDx=0;entryDy=0;" parent="1" source="glZ-dOasdqyVMI1zNMbs-57" edge="1">
          <mxGeometry width="50" height="50" relative="1" as="geometry">
            <mxPoint x="177" y="53.62" as="sourcePoint" />
            <mxPoint x="226.69" y="120" as="targetPoint" />
          </mxGeometry>
        </mxCell>
        <mxCell id="glZ-dOasdqyVMI1zNMbs-60" value="Name" style="text;html=1;align=center;verticalAlign=middle;resizable=0;points=[];autosize=1;strokeColor=none;fillColor=none;" parent="1" vertex="1">
          <mxGeometry x="172" y="79.5" width="60" height="30" as="geometry" />
        </mxCell>
        <mxCell id="glZ-dOasdqyVMI1zNMbs-63" value="Location" style="text;html=1;align=center;verticalAlign=middle;whiteSpace=wrap;rounded=0;" parent="1" vertex="1">
          <mxGeometry x="219" y="65" width="60" height="30" as="geometry" />
        </mxCell>
        <mxCell id="1U37Jf4oI8V5bz3e3lb--17" style="edgeStyle=orthogonalEdgeStyle;rounded=0;orthogonalLoop=1;jettySize=auto;html=1;exitX=0.5;exitY=1;exitDx=0;exitDy=0;entryX=0.204;entryY=0;entryDx=0;entryDy=0;entryPerimeter=0;endArrow=none;endFill=0;" edge="1" parent="1" source="glZ-dOasdqyVMI1zNMbs-49" target="t1PmMs3IWx8FvDzvTRMG-4">
          <mxGeometry relative="1" as="geometry" />
        </mxCell>
        <mxCell id="TPkK5msz5t8PLeYrQ9Gh-1" value="StartDate" style="text;html=1;whiteSpace=wrap;strokeColor=none;fillColor=none;align=center;verticalAlign=middle;rounded=0;" vertex="1" parent="1">
          <mxGeometry x="276" y="67" width="60" height="30" as="geometry" />
        </mxCell>
        <mxCell id="1U37Jf4oI8V5bz3e3lb--19" value="IdCode" style="text;html=1;whiteSpace=wrap;strokeColor=none;fillColor=none;align=center;verticalAlign=middle;rounded=0;" vertex="1" parent="1">
          <mxGeometry x="478" y="60.5" width="60" height="30" as="geometry" />
        </mxCell>
        <mxCell id="TPkK5msz5t8PLeYrQ9Gh-2" value="EndDate" style="text;html=1;whiteSpace=wrap;strokeColor=none;fillColor=none;align=center;verticalAlign=middle;rounded=0;" vertex="1" parent="1">
          <mxGeometry x="335" y="81" width="60" height="30" as="geometry" />
        </mxCell>
        <mxCell id="TPkK5msz5t8PLeYrQ9Gh-4" value="" style="ellipse;whiteSpace=wrap;html=1;aspect=fixed;" vertex="1" parent="1">
          <mxGeometry x="45" y="95" width="13" height="13" as="geometry" />
        </mxCell>
        <mxCell id="1U37Jf4oI8V5bz3e3lb--20" value="Name" style="text;html=1;whiteSpace=wrap;strokeColor=none;fillColor=none;align=center;verticalAlign=middle;rounded=0;" vertex="1" parent="1">
          <mxGeometry x="545" y="61" width="50" height="20" as="geometry" />
        </mxCell>
        <mxCell id="TPkK5msz5t8PLeYrQ9Gh-5" value="" style="endArrow=none;html=1;rounded=0;entryX=0.75;entryY=0;entryDx=0;entryDy=0;exitX=0.5;exitY=1;exitDx=0;exitDy=0;" edge="1" parent="1" source="TPkK5msz5t8PLeYrQ9Gh-4" target="t1PmMs3IWx8FvDzvTRMG-77">
          <mxGeometry width="50" height="50" relative="1" as="geometry">
            <mxPoint x="23" y="94.5" as="sourcePoint" />
            <mxPoint x="55" y="120" as="targetPoint" />
          </mxGeometry>
        </mxCell>
        <mxCell id="1U37Jf4oI8V5bz3e3lb--21" value="MaximumCapacity" style="text;html=1;whiteSpace=wrap;strokeColor=none;fillColor=none;align=center;verticalAlign=middle;rounded=0;" vertex="1" parent="1">
          <mxGeometry x="597" y="55" width="50" height="10" as="geometry" />
        </mxCell>
        <mxCell id="TPkK5msz5t8PLeYrQ9Gh-6" value="" style="ellipse;whiteSpace=wrap;html=1;aspect=fixed;" vertex="1" parent="1">
          <mxGeometry x="-13" y="95" width="13" height="13" as="geometry" />
        </mxCell>
        <mxCell id="1U37Jf4oI8V5bz3e3lb--23" style="rounded=0;orthogonalLoop=1;jettySize=auto;html=1;exitX=0;exitY=1;exitDx=0;exitDy=0;entryX=0.931;entryY=0.011;entryDx=0;entryDy=0;endArrow=none;endFill=0;entryPerimeter=0;" edge="1" parent="1" source="1U37Jf4oI8V5bz3e3lb--22" target="t1PmMs3IWx8FvDzvTRMG-4">
          <mxGeometry relative="1" as="geometry" />
        </mxCell>
        <mxCell id="TPkK5msz5t8PLeYrQ9Gh-7" value="" style="endArrow=none;html=1;rounded=0;entryX=0.473;entryY=0.007;entryDx=0;entryDy=0;exitX=0.5;exitY=1;exitDx=0;exitDy=0;entryPerimeter=0;" edge="1" parent="1" source="TPkK5msz5t8PLeYrQ9Gh-6">
          <mxGeometry width="50" height="50" relative="1" as="geometry">
            <mxPoint x="-38" y="94.5" as="sourcePoint" />
            <mxPoint x="-6" y="120" as="targetPoint" />
          </mxGeometry>
        </mxCell>
        <mxCell id="1U37Jf4oI8V5bz3e3lb--22" value="" style="ellipse;whiteSpace=wrap;html=1;aspect=fixed;" vertex="1" parent="1">
          <mxGeometry x="659" y="81" width="13" height="13" as="geometry" />
        </mxCell>
        <mxCell id="TPkK5msz5t8PLeYrQ9Gh-8" value="Type" style="text;html=1;whiteSpace=wrap;strokeColor=none;fillColor=none;align=center;verticalAlign=middle;rounded=0;" vertex="1" parent="1">
          <mxGeometry x="-59" y="86" width="60" height="30" as="geometry" />
        </mxCell>
        <mxCell id="1U37Jf4oI8V5bz3e3lb--24" value="LocationDescription" style="text;html=1;whiteSpace=wrap;strokeColor=none;fillColor=none;align=center;verticalAlign=middle;rounded=0;" vertex="1" parent="1">
          <mxGeometry x="657" y="58.5" width="60" height="30" as="geometry" />
        </mxCell>
        <mxCell id="TPkK5msz5t8PLeYrQ9Gh-9" value="Price" style="text;html=1;whiteSpace=wrap;strokeColor=none;fillColor=none;align=center;verticalAlign=middle;rounded=0;" vertex="1" parent="1">
          <mxGeometry x="6" y="78" width="31" height="17" as="geometry" />
        </mxCell>
        <mxCell id="TPkK5msz5t8PLeYrQ9Gh-10" value="Validity" style="text;html=1;whiteSpace=wrap;strokeColor=none;fillColor=none;align=center;verticalAlign=middle;rounded=0;" vertex="1" parent="1">
          <mxGeometry x="61" y="93" width="37" height="17" as="geometry" />
        </mxCell>
        <mxCell id="1U37Jf4oI8V5bz3e3lb--28" value="Id" style="text;html=1;whiteSpace=wrap;strokeColor=none;fillColor=none;align=center;verticalAlign=middle;rounded=0;" vertex="1" parent="1">
          <mxGeometry x="414.5" y="270" width="60" height="30" as="geometry" />
        </mxCell>
        <mxCell id="TPkK5msz5t8PLeYrQ9Gh-11" value="" style="ellipse;whiteSpace=wrap;html=1;aspect=fixed;" vertex="1" parent="1">
          <mxGeometry x="-226" y="95" width="13" height="13" as="geometry" />
        </mxCell>
        <mxCell id="1U37Jf4oI8V5bz3e3lb--30" style="rounded=0;orthogonalLoop=1;jettySize=auto;html=1;exitX=0;exitY=1;exitDx=0;exitDy=0;entryX=0.94;entryY=-0.005;entryDx=0;entryDy=0;endArrow=none;endFill=0;entryPerimeter=0;" edge="1" parent="1" source="1U37Jf4oI8V5bz3e3lb--29" target="t1PmMs3IWx8FvDzvTRMG-3">
          <mxGeometry relative="1" as="geometry" />
        </mxCell>
        <mxCell id="TPkK5msz5t8PLeYrQ9Gh-12" value="" style="endArrow=none;html=1;rounded=0;entryX=0.473;entryY=0.007;entryDx=0;entryDy=0;exitX=0.5;exitY=1;exitDx=0;exitDy=0;entryPerimeter=0;" edge="1" parent="1" source="TPkK5msz5t8PLeYrQ9Gh-11">
          <mxGeometry width="50" height="50" relative="1" as="geometry">
            <mxPoint x="-251" y="94.5" as="sourcePoint" />
            <mxPoint x="-219" y="120" as="targetPoint" />
          </mxGeometry>
        </mxCell>
        <mxCell id="1U37Jf4oI8V5bz3e3lb--29" value="" style="ellipse;whiteSpace=wrap;html=1;aspect=fixed;" vertex="1" parent="1">
          <mxGeometry x="627" y="257" width="13" height="13" as="geometry" />
        </mxCell>
        <mxCell id="TPkK5msz5t8PLeYrQ9Gh-13" value="" style="ellipse;whiteSpace=wrap;html=1;aspect=fixed;" vertex="1" parent="1">
          <mxGeometry x="-199" y="95" width="13" height="13" as="geometry" />
        </mxCell>
        <mxCell id="1U37Jf4oI8V5bz3e3lb--31" value="Title" style="text;html=1;whiteSpace=wrap;strokeColor=none;fillColor=none;align=center;verticalAlign=middle;rounded=0;" vertex="1" parent="1">
          <mxGeometry x="627" y="241.5" width="60" height="30" as="geometry" />
        </mxCell>
        <mxCell id="TPkK5msz5t8PLeYrQ9Gh-14" value="" style="endArrow=none;html=1;rounded=0;entryX=0.75;entryY=0;entryDx=0;entryDy=0;exitX=0.5;exitY=1;exitDx=0;exitDy=0;" edge="1" parent="1" source="TPkK5msz5t8PLeYrQ9Gh-13">
          <mxGeometry width="50" height="50" relative="1" as="geometry">
            <mxPoint x="-221" y="94.5" as="sourcePoint" />
            <mxPoint x="-192" y="120" as="targetPoint" />
          </mxGeometry>
        </mxCell>
        <mxCell id="1U37Jf4oI8V5bz3e3lb--32" value="" style="ellipse;whiteSpace=wrap;html=1;aspect=fixed;" vertex="1" parent="1">
          <mxGeometry x="457.5" y="309.5" width="13" height="13" as="geometry" />
        </mxCell>
        <mxCell id="TPkK5msz5t8PLeYrQ9Gh-15" value="" style="ellipse;whiteSpace=wrap;html=1;aspect=fixed;" vertex="1" parent="1">
          <mxGeometry x="-257" y="95" width="13" height="13" as="geometry" />
        </mxCell>
        <mxCell id="1U37Jf4oI8V5bz3e3lb--33" style="rounded=0;orthogonalLoop=1;jettySize=auto;html=1;exitX=1;exitY=1;exitDx=0;exitDy=0;endArrow=none;endFill=0;entryX=0;entryY=0.75;entryDx=0;entryDy=0;" edge="1" parent="1" source="1U37Jf4oI8V5bz3e3lb--32" target="t1PmMs3IWx8FvDzvTRMG-3">
          <mxGeometry relative="1" as="geometry">
            <mxPoint x="520" y="279" as="targetPoint" />
          </mxGeometry>
        </mxCell>
        <mxCell id="TPkK5msz5t8PLeYrQ9Gh-16" value="" style="endArrow=none;html=1;rounded=0;entryX=0.473;entryY=0.007;entryDx=0;entryDy=0;exitX=0.5;exitY=1;exitDx=0;exitDy=0;entryPerimeter=0;" edge="1" parent="1" source="TPkK5msz5t8PLeYrQ9Gh-15">
          <mxGeometry width="50" height="50" relative="1" as="geometry">
            <mxPoint x="-282" y="94.5" as="sourcePoint" />
            <mxPoint x="-250" y="120" as="targetPoint" />
          </mxGeometry>
        </mxCell>
        <mxCell id="1U37Jf4oI8V5bz3e3lb--34" value="StartTime" style="text;html=1;whiteSpace=wrap;strokeColor=none;fillColor=none;align=center;verticalAlign=middle;rounded=0;" vertex="1" parent="1">
          <mxGeometry x="400" y="300" width="60" height="30" as="geometry" />
        </mxCell>
        <mxCell id="TPkK5msz5t8PLeYrQ9Gh-17" value="Full name" style="text;html=1;whiteSpace=wrap;strokeColor=none;fillColor=none;align=center;verticalAlign=middle;rounded=0;" vertex="1" parent="1">
          <mxGeometry x="-315" y="94" width="60" height="14" as="geometry" />
        </mxCell>
        <mxCell id="1U37Jf4oI8V5bz3e3lb--35" value="" style="ellipse;whiteSpace=wrap;html=1;aspect=fixed;" vertex="1" parent="1">
          <mxGeometry x="481" y="247" width="13" height="13" as="geometry" />
        </mxCell>
        <mxCell id="TPkK5msz5t8PLeYrQ9Gh-18" value="Email" style="text;html=1;whiteSpace=wrap;strokeColor=none;fillColor=none;align=center;verticalAlign=middle;rounded=0;" vertex="1" parent="1">
          <mxGeometry x="-242" y="79" width="40" height="20" as="geometry" />
        </mxCell>
        <mxCell id="1U37Jf4oI8V5bz3e3lb--36" style="rounded=0;orthogonalLoop=1;jettySize=auto;html=1;endArrow=none;endFill=0;entryX=0.029;entryY=0.03;entryDx=0;entryDy=0;entryPerimeter=0;" edge="1" parent="1" source="1U37Jf4oI8V5bz3e3lb--35" target="t1PmMs3IWx8FvDzvTRMG-3">
          <mxGeometry relative="1" as="geometry">
            <mxPoint x="510" y="280" as="targetPoint" />
          </mxGeometry>
        </mxCell>
        <mxCell id="TPkK5msz5t8PLeYrQ9Gh-19" value="PhoneNumber" style="text;html=1;whiteSpace=wrap;strokeColor=none;fillColor=none;align=center;verticalAlign=middle;rounded=0;" vertex="1" parent="1">
          <mxGeometry x="-198" y="87" width="60" height="30" as="geometry" />
        </mxCell>
        <mxCell id="1U37Jf4oI8V5bz3e3lb--37" value="EndTime" style="text;html=1;whiteSpace=wrap;strokeColor=none;fillColor=none;align=center;verticalAlign=middle;rounded=0;" vertex="1" parent="1">
          <mxGeometry x="440" y="227" width="60" height="30" as="geometry" />
        </mxCell>
        <mxCell id="TPkK5msz5t8PLeYrQ9Gh-20" value="Buy" style="text;html=1;whiteSpace=wrap;strokeColor=none;fillColor=none;align=center;verticalAlign=middle;rounded=0;" vertex="1" parent="1">
          <mxGeometry x="-131" y="111" width="60" height="30" as="geometry" />
        </mxCell>
        <mxCell id="1U37Jf4oI8V5bz3e3lb--39" style="rounded=0;orthogonalLoop=1;jettySize=auto;html=1;entryX=0.018;entryY=0.043;entryDx=0;entryDy=0;endArrow=none;endFill=0;entryPerimeter=0;" edge="1" parent="1" source="1U37Jf4oI8V5bz3e3lb--38" target="t1PmMs3IWx8FvDzvTRMG-2">
          <mxGeometry relative="1" as="geometry" />
        </mxCell>
        <mxCell id="TPkK5msz5t8PLeYrQ9Gh-21" value="Purchase" style="text;html=1;whiteSpace=wrap;strokeColor=none;fillColor=none;align=center;verticalAlign=middle;rounded=0;" vertex="1" parent="1">
          <mxGeometry x="-260" y="600" width="60" height="30" as="geometry" />
        </mxCell>
        <mxCell id="1U37Jf4oI8V5bz3e3lb--38" value="" style="ellipse;whiteSpace=wrap;html=1;aspect=fixed;" vertex="1" parent="1">
          <mxGeometry x="460" y="420" width="13" height="13" as="geometry" />
        </mxCell>
        <mxCell id="TPkK5msz5t8PLeYrQ9Gh-22" value="DateTime" style="text;html=1;whiteSpace=wrap;strokeColor=none;fillColor=none;align=center;verticalAlign=middle;rounded=0;" vertex="1" parent="1">
          <mxGeometry x="-202" y="535" width="52" height="20" as="geometry" />
        </mxCell>
        <mxCell id="TPkK5msz5t8PLeYrQ9Gh-23" value="" style="ellipse;whiteSpace=wrap;html=1;aspect=fixed;" vertex="1" parent="1">
          <mxGeometry x="-186" y="562" width="13" height="13" as="geometry" />
        </mxCell>
        <mxCell id="TPkK5msz5t8PLeYrQ9Gh-24" value="" style="endArrow=none;html=1;rounded=0;entryX=0.862;entryY=0.354;entryDx=0;entryDy=0;entryPerimeter=0;" edge="1" parent="1" source="TPkK5msz5t8PLeYrQ9Gh-23" target="t1PmMs3IWx8FvDzvTRMG-91">
          <mxGeometry width="50" height="50" relative="1" as="geometry">
            <mxPoint x="-188" y="575.5" as="sourcePoint" />
            <mxPoint x="-180" y="613" as="targetPoint" />
          </mxGeometry>
        </mxCell>
        <mxCell id="TPkK5msz5t8PLeYrQ9Gh-26" value="PaymentMethod" style="text;html=1;whiteSpace=wrap;strokeColor=none;fillColor=none;align=center;verticalAlign=middle;rounded=0;" vertex="1" parent="1">
          <mxGeometry x="-173" y="560" width="93" height="10" as="geometry" />
        </mxCell>
        <mxCell id="1U37Jf4oI8V5bz3e3lb--40" value="StageName" style="text;html=1;whiteSpace=wrap;strokeColor=none;fillColor=none;align=center;verticalAlign=middle;rounded=0;" vertex="1" parent="1">
          <mxGeometry x="420" y="400" width="60" height="30" as="geometry" />
        </mxCell>
        <mxCell id="TPkK5msz5t8PLeYrQ9Gh-27" value="Da ragionare se unire le relazioni buy a product o se aggiungere le date di acquisto e il metodo per i ticket" style="text;html=1;whiteSpace=wrap;strokeColor=none;fillColor=none;align=center;verticalAlign=middle;rounded=0;" vertex="1" parent="1">
          <mxGeometry x="-180" y="240" width="140" height="100" as="geometry" />
        </mxCell>
        <mxCell id="1U37Jf4oI8V5bz3e3lb--42" style="rounded=0;orthogonalLoop=1;jettySize=auto;html=1;entryX=0;entryY=0.5;entryDx=0;entryDy=0;endArrow=none;endFill=0;" edge="1" parent="1" source="1U37Jf4oI8V5bz3e3lb--41" target="t1PmMs3IWx8FvDzvTRMG-2">
          <mxGeometry relative="1" as="geometry" />
        </mxCell>
        <mxCell id="1U37Jf4oI8V5bz3e3lb--41" value="" style="ellipse;whiteSpace=wrap;html=1;aspect=fixed;" vertex="1" parent="1">
          <mxGeometry x="447" y="444" width="13" height="13" as="geometry" />
        </mxCell>
        <mxCell id="1U37Jf4oI8V5bz3e3lb--43" value="Country" style="text;html=1;whiteSpace=wrap;strokeColor=none;fillColor=none;align=center;verticalAlign=middle;rounded=0;" vertex="1" parent="1">
          <mxGeometry x="395" y="430" width="60" height="30" as="geometry" />
        </mxCell>
        <mxCell id="1U37Jf4oI8V5bz3e3lb--44" value="" style="ellipse;whiteSpace=wrap;html=1;aspect=fixed;" vertex="1" parent="1">
          <mxGeometry x="400" y="667" width="13" height="13" as="geometry" />
        </mxCell>
        <mxCell id="1U37Jf4oI8V5bz3e3lb--46" style="rounded=0;orthogonalLoop=1;jettySize=auto;html=1;endArrow=none;endFill=0;" edge="1" parent="1" source="1U37Jf4oI8V5bz3e3lb--44">
          <mxGeometry relative="1" as="geometry">
            <mxPoint x="410" y="630" as="targetPoint" />
          </mxGeometry>
        </mxCell>
        <mxCell id="1U37Jf4oI8V5bz3e3lb--47" value="FullName" style="text;html=1;whiteSpace=wrap;strokeColor=none;fillColor=none;align=center;verticalAlign=middle;rounded=0;" vertex="1" parent="1">
          <mxGeometry x="360" y="670" width="60" height="30" as="geometry" />
        </mxCell>
        <mxCell id="1U37Jf4oI8V5bz3e3lb--49" style="rounded=0;orthogonalLoop=1;jettySize=auto;html=1;entryX=0.01;entryY=0.938;entryDx=0;entryDy=0;endArrow=none;endFill=0;entryPerimeter=0;" edge="1" parent="1" source="1U37Jf4oI8V5bz3e3lb--48" target="t1PmMs3IWx8FvDzvTRMG-26">
          <mxGeometry relative="1" as="geometry" />
        </mxCell>
        <mxCell id="1U37Jf4oI8V5bz3e3lb--48" value="" style="ellipse;whiteSpace=wrap;html=1;aspect=fixed;" vertex="1" parent="1">
          <mxGeometry x="363" y="642" width="13" height="13" as="geometry" />
        </mxCell>
        <mxCell id="1U37Jf4oI8V5bz3e3lb--50" value="Nationality" style="text;html=1;whiteSpace=wrap;strokeColor=none;fillColor=none;align=center;verticalAlign=middle;rounded=0;" vertex="1" parent="1">
          <mxGeometry x="326" y="647" width="60" height="30" as="geometry" />
        </mxCell>
        <mxCell id="1U37Jf4oI8V5bz3e3lb--51" value="" style="ellipse;whiteSpace=wrap;html=1;aspect=fixed;" vertex="1" parent="1">
          <mxGeometry x="438" y="671" width="13" height="13" as="geometry" />
        </mxCell>
        <mxCell id="1U37Jf4oI8V5bz3e3lb--52" style="rounded=0;orthogonalLoop=1;jettySize=auto;html=1;entryX=0.385;entryY=1.003;entryDx=0;entryDy=0;entryPerimeter=0;endArrow=none;endFill=0;" edge="1" parent="1" source="1U37Jf4oI8V5bz3e3lb--51" target="t1PmMs3IWx8FvDzvTRMG-26">
          <mxGeometry relative="1" as="geometry" />
        </mxCell>
        <mxCell id="1U37Jf4oI8V5bz3e3lb--53" value="MainInstrument" style="text;html=1;whiteSpace=wrap;strokeColor=none;fillColor=none;align=center;verticalAlign=middle;rounded=0;" vertex="1" parent="1">
          <mxGeometry x="434" y="677" width="60" height="30" as="geometry" />
        </mxCell>
        <mxCell id="1U37Jf4oI8V5bz3e3lb--55" style="rounded=0;orthogonalLoop=1;jettySize=auto;html=1;entryX=0.25;entryY=1;entryDx=0;entryDy=0;endArrow=none;endFill=0;" edge="1" parent="1" source="1U37Jf4oI8V5bz3e3lb--54" target="t1PmMs3IWx8FvDzvTRMG-28">
          <mxGeometry relative="1" as="geometry" />
        </mxCell>
        <mxCell id="1U37Jf4oI8V5bz3e3lb--54" value="" style="ellipse;whiteSpace=wrap;html=1;aspect=fixed;" vertex="1" parent="1">
          <mxGeometry x="663" y="656" width="13" height="13" as="geometry" />
        </mxCell>
        <mxCell id="1U37Jf4oI8V5bz3e3lb--56" value="FormationYear" style="text;html=1;whiteSpace=wrap;strokeColor=none;fillColor=none;align=center;verticalAlign=middle;rounded=0;" vertex="1" parent="1">
          <mxGeometry x="635" y="665" width="60" height="30" as="geometry" />
        </mxCell>
        <mxCell id="TPkK5msz5t8PLeYrQ9Gh-29" value="Name" style="text;html=1;whiteSpace=wrap;strokeColor=none;fillColor=none;align=center;verticalAlign=middle;rounded=0;" vertex="1" parent="1">
          <mxGeometry x="350" y="330" width="40" height="20" as="geometry" />
        </mxCell>
        <mxCell id="1U37Jf4oI8V5bz3e3lb--58" style="rounded=0;orthogonalLoop=1;jettySize=auto;html=1;entryX=0.25;entryY=0;entryDx=0;entryDy=0;endArrow=none;endFill=0;" edge="1" parent="1" source="1U37Jf4oI8V5bz3e3lb--57" target="t1PmMs3IWx8FvDzvTRMG-36">
          <mxGeometry relative="1" as="geometry" />
        </mxCell>
        <mxCell id="TPkK5msz5t8PLeYrQ9Gh-30" value="" style="ellipse;whiteSpace=wrap;html=1;aspect=fixed;" vertex="1" parent="1">
          <mxGeometry x="335" y="350" width="13" height="13" as="geometry" />
        </mxCell>
        <mxCell id="1U37Jf4oI8V5bz3e3lb--57" value="" style="ellipse;whiteSpace=wrap;html=1;aspect=fixed;" vertex="1" parent="1">
          <mxGeometry x="780" y="228.5" width="13" height="13" as="geometry" />
        </mxCell>
        <mxCell id="TPkK5msz5t8PLeYrQ9Gh-31" value="" style="endArrow=none;html=1;rounded=0;entryX=1;entryY=0.25;entryDx=0;entryDy=0;exitX=0;exitY=0.5;exitDx=0;exitDy=0;" edge="1" parent="1" source="TPkK5msz5t8PLeYrQ9Gh-30">
          <mxGeometry width="50" height="50" relative="1" as="geometry">
            <mxPoint x="326" y="353.5" as="sourcePoint" />
            <mxPoint x="320" y="357" as="targetPoint" />
          </mxGeometry>
        </mxCell>
        <mxCell id="1U37Jf4oI8V5bz3e3lb--59" value="Name" style="text;html=1;whiteSpace=wrap;strokeColor=none;fillColor=none;align=center;verticalAlign=middle;rounded=0;" vertex="1" parent="1">
          <mxGeometry x="756.5" y="206" width="60" height="30" as="geometry" />
        </mxCell>
        <mxCell id="1U37Jf4oI8V5bz3e3lb--60" value="" style="ellipse;whiteSpace=wrap;html=1;aspect=fixed;" vertex="1" parent="1">
          <mxGeometry x="329.5" y="517" width="13" height="13" as="geometry" />
        </mxCell>
        <mxCell id="TPkK5msz5t8PLeYrQ9Gh-32" value="Sponsor" style="text;html=1;whiteSpace=wrap;strokeColor=none;fillColor=none;align=center;verticalAlign=middle;rounded=0;" vertex="1" parent="1">
          <mxGeometry x="350" y="346" width="45" height="20" as="geometry" />
        </mxCell>
        <mxCell id="1U37Jf4oI8V5bz3e3lb--61" style="rounded=0;orthogonalLoop=1;jettySize=auto;html=1;endArrow=none;endFill=0;" edge="1" parent="1" source="1U37Jf4oI8V5bz3e3lb--60">
          <mxGeometry relative="1" as="geometry">
            <mxPoint x="307" y="560" as="targetPoint" />
          </mxGeometry>
        </mxCell>
        <mxCell id="TPkK5msz5t8PLeYrQ9Gh-33" value="" style="ellipse;whiteSpace=wrap;html=1;aspect=fixed;" vertex="1" parent="1">
          <mxGeometry x="335" y="724" width="13" height="13" as="geometry" />
        </mxCell>
        <mxCell id="1U37Jf4oI8V5bz3e3lb--62" value="Name" style="text;html=1;whiteSpace=wrap;strokeColor=none;fillColor=none;align=center;verticalAlign=middle;rounded=0;" vertex="1" parent="1">
          <mxGeometry x="342.5" y="506" width="40" height="24" as="geometry" />
        </mxCell>
        <mxCell id="TPkK5msz5t8PLeYrQ9Gh-34" value="" style="endArrow=none;html=1;rounded=0;entryX=1;entryY=0.25;entryDx=0;entryDy=0;exitX=0;exitY=0.5;exitDx=0;exitDy=0;" edge="1" parent="1" source="TPkK5msz5t8PLeYrQ9Gh-33">
          <mxGeometry width="50" height="50" relative="1" as="geometry">
            <mxPoint x="326" y="727.5" as="sourcePoint" />
            <mxPoint x="320" y="731" as="targetPoint" />
          </mxGeometry>
        </mxCell>
        <mxCell id="1U37Jf4oI8V5bz3e3lb--64" style="rounded=0;orthogonalLoop=1;jettySize=auto;html=1;endArrow=none;endFill=0;entryX=1;entryY=0.5;entryDx=0;entryDy=0;" edge="1" parent="1" source="1U37Jf4oI8V5bz3e3lb--63" target="t1PmMs3IWx8FvDzvTRMG-61">
          <mxGeometry relative="1" as="geometry">
            <mxPoint x="310" y="560" as="targetPoint" />
          </mxGeometry>
        </mxCell>
        <mxCell id="TPkK5msz5t8PLeYrQ9Gh-35" value="ExpirationDate" style="text;html=1;whiteSpace=wrap;strokeColor=none;fillColor=none;align=center;verticalAlign=middle;rounded=0;" vertex="1" parent="1">
          <mxGeometry x="350" y="720" width="80" height="20" as="geometry" />
        </mxCell>
        <mxCell id="1U37Jf4oI8V5bz3e3lb--63" value="" style="ellipse;whiteSpace=wrap;html=1;aspect=fixed;" vertex="1" parent="1">
          <mxGeometry x="350" y="542" width="13" height="13" as="geometry" />
        </mxCell>
        <mxCell id="TPkK5msz5t8PLeYrQ9Gh-36" value="" style="ellipse;whiteSpace=wrap;html=1;aspect=fixed;" vertex="1" parent="1">
          <mxGeometry x="335" y="854" width="13" height="13" as="geometry" />
        </mxCell>
        <mxCell id="1U37Jf4oI8V5bz3e3lb--65" value="Price" style="text;html=1;whiteSpace=wrap;strokeColor=none;fillColor=none;align=center;verticalAlign=middle;rounded=0;" vertex="1" parent="1">
          <mxGeometry x="342.5" y="521" width="60" height="30" as="geometry" />
        </mxCell>
        <mxCell id="TPkK5msz5t8PLeYrQ9Gh-37" value="" style="endArrow=none;html=1;rounded=0;entryX=1;entryY=0.25;entryDx=0;entryDy=0;exitX=0;exitY=0.5;exitDx=0;exitDy=0;" edge="1" parent="1" source="TPkK5msz5t8PLeYrQ9Gh-36">
          <mxGeometry width="50" height="50" relative="1" as="geometry">
            <mxPoint x="326" y="857.5" as="sourcePoint" />
            <mxPoint x="320" y="861" as="targetPoint" />
          </mxGeometry>
        </mxCell>
        <mxCell id="TPkK5msz5t8PLeYrQ9Gh-38" value="Type" style="text;html=1;whiteSpace=wrap;strokeColor=none;fillColor=none;align=center;verticalAlign=middle;rounded=0;" vertex="1" parent="1">
          <mxGeometry x="350" y="850" width="30" height="20" as="geometry" />
        </mxCell>
        <mxCell id="TPkK5msz5t8PLeYrQ9Gh-39" value="Host" style="text;html=1;whiteSpace=wrap;strokeColor=none;fillColor=none;align=center;verticalAlign=middle;rounded=0;" vertex="1" parent="1">
          <mxGeometry x="260" y="240" width="60" height="30" as="geometry" />
        </mxCell>
        <mxCell id="TPkK5msz5t8PLeYrQ9Gh-40" value="Sell" style="text;html=1;whiteSpace=wrap;strokeColor=none;fillColor=none;align=center;verticalAlign=middle;rounded=0;" vertex="1" parent="1">
          <mxGeometry x="274" y="481" width="30" height="30" as="geometry" />
        </mxCell>
        <mxCell id="1U37Jf4oI8V5bz3e3lb--70" style="rounded=0;orthogonalLoop=1;jettySize=auto;html=1;entryX=0;entryY=0.25;entryDx=0;entryDy=0;endArrow=none;endFill=0;" edge="1" parent="1" source="1U37Jf4oI8V5bz3e3lb--69" target="t1PmMs3IWx8FvDzvTRMG-3">
          <mxGeometry relative="1" as="geometry" />
        </mxCell>
        <mxCell id="TPkK5msz5t8PLeYrQ9Gh-42" value="Offer" style="text;html=1;whiteSpace=wrap;strokeColor=none;fillColor=none;align=center;verticalAlign=middle;rounded=0;" vertex="1" parent="1">
          <mxGeometry x="110" y="109" width="60" height="30" as="geometry" />
        </mxCell>
        <mxCell id="1U37Jf4oI8V5bz3e3lb--69" value="" style="ellipse;whiteSpace=wrap;html=1;aspect=fixed;" vertex="1" parent="1">
          <mxGeometry x="455" y="280" width="13" height="13" as="geometry" />
        </mxCell>
        <mxCell id="1U37Jf4oI8V5bz3e3lb--71" value="Hold" style="text;html=1;whiteSpace=wrap;strokeColor=none;fillColor=none;align=center;verticalAlign=middle;rounded=0;" vertex="1" parent="1">
          <mxGeometry x="585" y="220" width="60" height="30" as="geometry" />
        </mxCell>
        <mxCell id="1U37Jf4oI8V5bz3e3lb--72" value="Give" style="text;html=1;whiteSpace=wrap;strokeColor=none;fillColor=none;align=center;verticalAlign=middle;rounded=0;" vertex="1" parent="1">
          <mxGeometry x="592" y="370" width="60" height="30" as="geometry" />
        </mxCell>
        <mxCell id="1U37Jf4oI8V5bz3e3lb--73" value="Play" style="text;html=1;whiteSpace=wrap;strokeColor=none;fillColor=none;align=center;verticalAlign=middle;rounded=0;" vertex="1" parent="1">
          <mxGeometry x="827" y="462" width="60" height="30" as="geometry" />
        </mxCell>
        <mxCell id="1U37Jf4oI8V5bz3e3lb--74" value="Have" style="text;html=1;whiteSpace=wrap;strokeColor=none;fillColor=none;align=center;verticalAlign=middle;rounded=0;" vertex="1" parent="1">
          <mxGeometry x="672" y="322.5" width="60" height="30" as="geometry" />
        </mxCell>
        <mxCell id="1U37Jf4oI8V5bz3e3lb--75" value="Make" style="text;html=1;whiteSpace=wrap;strokeColor=none;fillColor=none;align=center;verticalAlign=middle;rounded=0;" vertex="1" parent="1">
          <mxGeometry x="538.5" y="560" width="60" height="30" as="geometry" />
        </mxCell>
      </root>
    </mxGraphModel>
  </diagram>
</mxfile>
